<?xml version="1.0" encoding="UTF-8" standalone="no"?>
<!-- Created with Inkscape (http://www.inkscape.org/) -->

<svg
   width="263.32861mm"
   height="47.183144mm"
   viewBox="0 0 263.32861 47.183144"
   version="1.1"
   id="svg1"
   inkscape:version="1.3.2 (091e20e, 2023-11-25, custom)"
   sodipodi:docname="logo-light.svg"
   xmlns:inkscape="http://www.inkscape.org/namespaces/inkscape"
   xmlns:sodipodi="http://sodipodi.sourceforge.net/DTD/sodipodi-0.dtd"
   xmlns="http://www.w3.org/2000/svg"
   xmlns:svg="http://www.w3.org/2000/svg">
  <sodipodi:namedview
     id="namedview1"
     pagecolor="#ffffff"
     bordercolor="#000000"
     borderopacity="0.25"
     inkscape:showpageshadow="2"
     inkscape:pageopacity="0.0"
     inkscape:pagecheckerboard="0"
     inkscape:deskcolor="#d1d1d1"
     inkscape:document-units="mm"
     inkscape:zoom="1.0520974"
     inkscape:cx="276.11513"
     inkscape:cy="171.56207"
     inkscape:window-width="2560"
     inkscape:window-height="1377"
     inkscape:window-x="-8"
     inkscape:window-y="-8"
     inkscape:window-maximized="1"
     inkscape:current-layer="layer1" />
  <defs
     id="defs1" />
  <g
     inkscape:label="Warstwa 1"
     inkscape:groupmode="layer"
     id="layer1"
     transform="translate(-32.014583,-103.1875)">
    <rect
       width="4.2338552"
       height="47.183144"
       x="77.83979"
       y="103.1875"
       fill="#ffffff"
       opacity="1"
       stroke-width="0"
       stroke="transparent"
       fill-opacity="1"
       class="rect-yte-0"
       data-fill-palette-color="primary"
       rx="0.51121837%"
       id="yte-0"
       data-palette-color="#ffffff" />
    <path
       d="m 105.48277,150.25327 v 0 q -3.99011,0 -7.205164,-1.59317 -3.215054,-1.60753 -5.10964,-3.88964 v 0 l 1.650586,-6.87505 q 1.392233,2.78446 4.191053,5.02352 2.784465,2.23906 6.674105,2.23906 v 0 q 3.54517,0 5.85599,-2.23906 2.31083,-2.23906 2.31083,-5.52587 v 0 q 0,-2.39694 -1.13389,-3.9327 -1.14823,-1.55012 -2.59787,-2.45435 -1.44965,-0.88989 -2.29647,-1.29177 v 0 l -5.48282,-2.78446 q -1.29176,-0.7033 -3.215052,-1.952 -1.908938,-1.24871 -3.358583,-3.43035 -1.449645,-2.196 -1.449645,-5.68376 v 0 q 0,-3.38729 1.578821,-6.02822 1.564468,-2.64094 4.377639,-4.148 2.81317,-1.4927 6.45882,-1.4927 v 0 q 3.58823,0 6.32963,1.27741 2.74141,1.26306 4.29153,2.61223 v 0 l -1.65059,6.87505 q -1.2487,-2.09553 -3.6887,-3.9327 -2.44,-1.83717 -5.52587,-1.83717 v 0 q -2.99976,0 -4.79388,1.7654 -1.794114,1.76541 -1.794114,4.36329 v 0 q 0,1.99506 0.918584,3.28682 0.93294,1.29176 2.09553,2.03812 1.17694,0.74635 1.92329,1.14823 v 0 l 5.58329,2.78447 q 0.99035,0.50235 2.51176,1.40658 1.52141,0.88988 3.01411,2.36824 1.49271,1.46399 2.49741,3.58823 0.99035,2.10987 0.99035,5.10964 v 0 q 0,3.83223 -1.80847,6.81763 -1.82282,2.99976 -4.96611,4.69341 -3.14329,1.69364 -7.17646,1.69364 z m 30.60043,-0.60282 h -5.38235 v -25.41902 h -6.77457 v -4.47811 h 6.9181 v -9.97528 h 5.08094 v 9.97528 h 7.43481 v 4.47811 h -7.27693 z m 26.35196,0.40188 v 0 q -4.07623,0 -7.46352,-2.06682 -3.40164,-2.06682 -5.41105,-5.55458 -2.02376,-3.50211 -2.02376,-7.73622 v 0 q 0,-4.23412 2.02376,-7.72188 2.00941,-3.48775 5.41105,-5.55458 3.38729,-2.06682 7.46352,-2.06682 v 0 q 3.10023,0 5.81294,1.14824 2.7127,1.14823 4.70775,3.18635 v 0 -3.9327 h 4.98047 v 29.89713 h -4.98047 v -3.9327 q -1.99505,1.99506 -4.70775,3.15764 -2.71271,1.17694 -5.81294,1.17694 z m 0.7033,-4.89434 v 0 q 2.84187,0 5.15269,-1.40659 2.32518,-1.42094 3.68871,-3.78917 1.37788,-2.36823 1.37788,-5.26752 v 0 q 0,-2.88494 -1.37788,-5.25317 -1.36353,-2.36823 -3.68871,-3.78917 -2.31082,-1.42094 -5.15269,-1.42094 v 0 q -2.84188,0 -5.1527,1.42094 -2.32518,1.42094 -3.6887,3.78917 -1.37788,2.36823 -1.37788,5.25317 v 0 q 0,2.89929 1.37788,5.26752 1.36352,2.36823 3.6887,3.78917 2.31082,1.40659 5.1527,1.40659 z m 31.2463,4.49246 h -5.38234 v -46.34558 l 20.82609,28.70584 20.43856,-28.70584 v 46.34558 h -5.68376 v -20.72562 q 0,-2.05247 0.0431,-4.46376 0.0574,-2.42564 0.35882,-5.51152 v 0 q -1.55011,2.74141 -3.01411,4.80823 -1.47835,2.06682 -2.66964,3.81788 v 0 l -9.67387,13.70704 -9.96093,-13.70704 q -1.2487,-1.75106 -2.66964,-3.81788 -1.42094,-2.06682 -3.01412,-4.80823 v 0 q 0.30141,3.08588 0.34447,5.51152 0.0574,2.41129 0.0574,4.46376 v 0 z m 59.75122,0.40188 v 0 q -4.09059,0 -7.47788,-2.06682 -3.38729,-2.06682 -5.41105,-5.55458 -2.00941,-3.50211 -2.00941,-7.73622 v 0 q 0,-4.23412 2.00941,-7.72188 2.02376,-3.48775 5.41105,-5.55458 3.38729,-2.06682 7.47788,-2.06682 v 0 q 3.08587,0 5.79858,1.14824 2.72705,1.14823 4.70775,3.18635 v 0 -3.9327 h 4.99482 v 29.89713 h -4.99482 v -3.9327 q -1.9807,1.99506 -4.70775,3.15764 -2.71271,1.17694 -5.79858,1.17694 z m 0.68894,-4.89434 v 0 q 2.84187,0 5.16705,-1.40659 2.31082,-1.42094 3.6887,-3.78917 1.36352,-2.36823 1.36352,-5.26752 v 0 q 0,-2.88494 -1.36352,-5.25317 -1.37788,-2.36823 -3.6887,-3.78917 -2.32518,-1.42094 -5.16705,-1.42094 v 0 q -2.84188,0 -5.1527,1.42094 -2.31082,1.42094 -3.6887,3.78917 -1.36353,2.36823 -1.36353,5.25317 v 0 q 0,2.89929 1.36353,5.26752 1.37788,2.36823 3.6887,3.78917 2.31082,1.40659 5.1527,1.40659 z m 33.24136,4.49246 h -5.38235 v -25.41902 h -6.77457 v -4.47811 h 6.93246 v -9.97528 h 5.08093 v 9.97528 h 7.42046 v 4.47811 h -7.27693 z"
       opacity="1"
       fill="#ffffff"
       class="wordmark-text-0"
       data-fill-palette-color="primary"
       id="text-0"
       style="stroke-width:1.43529" />
    <path
       d="m 32.014583,109.40816 v 34.74182 h 34.741816 v -34.74182 z m 22.19616,7.91805 h 6.948363 v 2.57861 h -6.948363 z m 5.08929,13.79674 c 0,0.20382 -0.04516,0.40147 -0.134335,0.59255 -0.08917,0.19108 -0.204204,0.36285 -0.34433,0.51533 a 1.5440807,1.5440807 0 0 1 -0.496808,0.36286 1.4282747,1.4282747 0 0 1 -0.61107,0.13395 1.6598868,1.6598868 0 0 1 -0.640021,-0.12353 1.5826827,1.5826827 0 0 1 -0.516495,-0.34433 1.7370908,1.7370908 0 0 1 -0.353595,-0.51572 1.5054787,1.5054787 0 0 1 -0.133949,-0.62111 c 0,-0.45859 0.162515,-0.84384 0.487544,-1.15613 0.325029,-0.3119 0.703715,-0.46824 1.136829,-0.46824 0.216944,0 0.420762,0.0413 0.612228,0.1243 0.190694,0.0834 0.359771,0.19764 0.506073,0.34394 0.146301,0.14708 0.26481,0.31886 0.353594,0.51611 0.08879,0.19726 0.134335,0.41073 0.134335,0.64002 m -13.393742,7.4776 -1.550257,1.55103 -3.265345,-3.28503 -3.284259,3.28503 -1.551029,-1.55103 3.285031,-3.26457 -3.244113,-3.26457 1.551029,-1.55103 3.243341,3.26457 3.265345,-3.26457 1.550257,1.55103 -3.284646,3.26457 z m 0,-19.09912 h -3.803457 v 3.80346 h -2.045135 v -3.80346 h -3.802298 v -2.04398 h 3.802298 v -3.80307 h 2.045135 v 3.80307 h 3.803457 z m 13.259407,20.12516 c -0.08878,0.19147 -0.204204,0.36325 -0.34433,0.5165 a 1.6984888,1.6984888 0 0 1 -0.496808,0.37251 1.3510706,1.3510706 0 0 1 -0.61107,0.14321 1.5440807,1.5440807 0 0 1 -0.640021,-0.13395 1.6984888,1.6984888 0 0 1 -0.516495,-0.35321 1.7370908,1.7370908 0 0 1 -0.353595,-0.51611 1.4668767,1.4668767 0 0 1 -0.133949,-0.6018 c 0,-0.2293 0.04478,-0.43929 0.133949,-0.63076 0.08917,-0.19146 0.207293,-0.36016 0.353595,-0.50607 a 1.5826827,1.5826827 0 0 1 0.516495,-0.34472 1.5826827,1.5826827 0 0 1 0.620334,-0.12352 c 0.216944,0 0.420762,0.0413 0.612228,0.12352 0.190694,0.0834 0.359771,0.19842 0.506073,0.34472 0.146301,0.14591 0.26481,0.31461 0.353594,0.50607 0.08879,0.19147 0.134335,0.40146 0.134335,0.63076 0,0.19108 -0.04555,0.38254 -0.134335,0.57285 m 3.344479,-3.51626 h -9.650504 v -2.04397 h 9.650504 z"
       fill="#ffffff"
       data-fill-palette-color="accent"
       id="path4"
       style="stroke-width:0.38602" />
  </g>
</svg>
