<svg xmlns="http://www.w3.org/2000/svg" version="1.1" xmlns:xlink="http://www.w3.org/1999/xlink" xmlns:svgjs="http://svgjs.dev/svgjs" width="1500" height="268" viewBox="0 0 1500 268"><g transform="matrix(1,0,0,1,-0.9090909090909918,-0.25249769435424696)"><svg viewBox="0 0 396 71" data-background-color="#f5ba41" preserveAspectRatio="xMidYMid meet" height="268" width="1500" xmlns="http://www.w3.org/2000/svg" xmlns:xlink="http://www.w3.org/1999/xlink"><g id="tight-bounds" transform="matrix(1,0,0,1,0.2400000000000091,0.0668930458923569)"><svg viewBox="0 0 395.52 70.86621390821526" height="70.86621390821526" width="395.52"><g><svg viewBox="0 0 515.1214376853031 92.29547429134827" height="70.86621390821526" width="395.52"><g><rect width="8.281891662212196" height="92.29547429134827" x="89.639201357614" y="0" fill="#ffffff" opacity="1" stroke-width="0" stroke="transparent" fill-opacity="1" class="rect-yte-0" data-fill-palette-color="primary" rx="1%" id="yte-0" data-palette-color="#ffffff"></rect></g><g transform="matrix(1,0,0,1,119.60143768530315,0.22959073206802572)"><svg viewBox="0 0 395.52 91.83629282721222" height="91.83629282721222" width="395.52"><g id="textblocktransform"><svg viewBox="0 0 395.52 91.83629282721222" height="91.83629282721222" width="395.52" id="textblock"><g><svg viewBox="0 0 395.52 91.83629282721222" height="91.83629282721222" width="395.52"><g transform="matrix(1,0,0,1,0,0)"><svg width="395.52" viewBox="2.53 -32.29 140.85999999999999 32.71" height="91.83629282721222" data-palette-color="#ffffff"><path d="M11.11 0.42L11.11 0.42Q8.33 0.42 6.09-0.69 3.85-1.81 2.53-3.4L2.53-3.4 3.68-8.19Q4.65-6.25 6.6-4.69 8.54-3.13 11.25-3.13L11.25-3.13Q13.72-3.13 15.33-4.69 16.94-6.25 16.94-8.54L16.94-8.54Q16.94-10.21 16.15-11.28 15.35-12.36 14.34-12.99 13.33-13.61 12.74-13.89L12.74-13.89 8.92-15.83Q8.02-16.32 6.68-17.19 5.35-18.06 4.34-19.58 3.33-21.11 3.33-23.54L3.33-23.54Q3.33-25.9 4.43-27.74 5.52-29.58 7.48-30.63 9.44-31.67 11.98-31.67L11.98-31.67Q14.48-31.67 16.39-30.78 18.3-29.9 19.38-28.96L19.38-28.96 18.23-24.17Q17.36-25.63 15.66-26.91 13.96-28.19 11.81-28.19L11.81-28.19Q9.72-28.19 8.47-26.96 7.22-25.73 7.22-23.92L7.22-23.92Q7.22-22.53 7.86-21.63 8.51-20.73 9.32-20.21 10.14-19.69 10.66-19.41L10.66-19.41 14.55-17.47Q15.24-17.12 16.3-16.49 17.36-15.87 18.4-14.84 19.44-13.82 20.14-12.34 20.83-10.87 20.83-8.78L20.83-8.78Q20.83-6.11 19.57-4.03 18.3-1.94 16.11-0.76 13.92 0.42 11.11 0.42ZM32.43 0L28.68 0 28.68-17.71 23.96-17.71 23.96-20.83 28.78-20.83 28.78-27.78 32.32-27.78 32.32-20.83 37.5-20.83 37.5-17.71 32.43-17.71 32.43 0ZM50.79 0.28L50.79 0.28Q47.95 0.28 45.59-1.16 43.22-2.6 41.82-5.03 40.41-7.47 40.41-10.42L40.41-10.42Q40.41-13.37 41.82-15.8 43.22-18.23 45.59-19.67 47.95-21.11 50.79-21.11L50.79-21.11Q52.95-21.11 54.84-20.31 56.73-19.51 58.12-18.09L58.12-18.09 58.12-20.83 61.59-20.83 61.59 0 58.12 0 58.12-2.74Q56.73-1.35 54.84-0.54 52.95 0.28 50.79 0.28ZM51.28-3.13L51.28-3.13Q53.26-3.13 54.87-4.11 56.49-5.1 57.44-6.75 58.4-8.4 58.4-10.42L58.4-10.42Q58.4-12.43 57.44-14.08 56.49-15.73 54.87-16.72 53.26-17.71 51.28-17.71L51.28-17.71Q49.3-17.71 47.69-16.72 46.07-15.73 45.12-14.08 44.16-12.43 44.16-10.42L44.16-10.42Q44.16-8.4 45.12-6.75 46.07-5.1 47.69-4.11 49.3-3.13 51.28-3.13ZM73.05 0L69.3 0 69.3-32.29 83.81-12.29 98.05-32.29 98.05 0 94.09 0 94.09-14.44Q94.09-15.87 94.12-17.55 94.16-19.24 94.37-21.39L94.37-21.39Q93.29-19.48 92.27-18.04 91.24-16.6 90.41-15.38L90.41-15.38 83.67-5.83 76.73-15.38Q75.86-16.6 74.87-18.04 73.88-19.48 72.77-21.39L72.77-21.39Q72.98-19.24 73.01-17.55 73.05-15.87 73.05-14.44L73.05-14.44 73.05 0ZM114.68 0.28L114.68 0.28Q111.83 0.28 109.47-1.16 107.11-2.6 105.7-5.03 104.3-7.47 104.3-10.42L104.3-10.42Q104.3-13.37 105.7-15.8 107.11-18.23 109.47-19.67 111.83-21.11 114.68-21.11L114.68-21.11Q116.83-21.11 118.72-20.31 120.62-19.51 122-18.09L122-18.09 122-20.83 125.48-20.83 125.48 0 122 0 122-2.74Q120.62-1.35 118.72-0.54 116.83 0.28 114.68 0.28ZM115.16-3.13L115.16-3.13Q117.14-3.13 118.76-4.11 120.37-5.1 121.33-6.75 122.28-8.4 122.28-10.42L122.28-10.42Q122.28-12.43 121.33-14.08 120.37-15.73 118.76-16.72 117.14-17.71 115.16-17.71L115.16-17.71Q113.18-17.71 111.57-16.72 109.96-15.73 109-14.08 108.05-12.43 108.05-10.42L108.05-10.42Q108.05-8.4 109-6.75 109.96-5.1 111.57-4.11 113.18-3.13 115.16-3.13ZM138.32 0L134.57 0 134.57-17.71 129.85-17.71 129.85-20.83 134.68-20.83 134.68-27.78 138.22-27.78 138.22-20.83 143.39-20.83 143.39-17.71 138.32-17.71 138.32 0Z" opacity="1" transform="matrix(1,0,0,1,0,0)" fill="#ffffff" class="wordmark-text-0" data-fill-palette-color="primary" id="text-0"></path></svg></g></svg></g></svg></g></svg></g><g transform="matrix(1,0,0,1,0,12.168308799605612)"><svg viewBox="0 0 67.95885669213705 67.95885669213705" height="67.95885669213705" width="67.95885669213705"><g><svg xmlns="http://www.w3.org/2000/svg" xmlns:xlink="http://www.w3.org/1999/xlink" version="1.1" x="0" y="0" viewBox="5 5 90 90" enable-background="new 0 0 100 100" xml:space="preserve" height="67.95885669213705" width="67.95885669213705" class="icon-icon-0" data-fill-palette-color="accent" id="icon-0"><path d="M5 5V95H95V5zM62.5 25.512H80.5V32.192H62.5zM75.684 61.253C75.684 61.781 75.567 62.293 75.336 62.788S74.807 63.728 74.444 64.123A4 4 0 0 1 73.157 65.063 3.7 3.7 0 0 1 71.574 65.41 4.3 4.3 0 0 1 69.916 65.09 4.1 4.1 0 0 1 68.578 64.198 4.5 4.5 0 0 1 67.662 62.862 3.9 3.9 0 0 1 67.315 61.253C67.315 60.065 67.736 59.067 68.578 58.258 69.42 57.45 70.401 57.045 71.523 57.045 72.085 57.045 72.613 57.152 73.109 57.367 73.603 57.583 74.041 57.879 74.42 58.258 74.799 58.639 75.106 59.084 75.336 59.595S75.684 60.659 75.684 61.253M40.987 80.624L36.971 84.642 28.512 76.132 20.004 84.642 15.986 80.624 24.496 72.167 16.092 63.71 20.11 59.692 28.512 68.149 36.971 59.692 40.987 63.71 32.478 72.167zM40.987 31.147H31.134V41H25.836V31.147H15.986V25.852H25.836V16H31.134V25.852H40.987zM75.336 83.282C75.106 83.778 74.807 84.223 74.444 84.62A4.4 4.4 0 0 1 73.157 85.585 3.5 3.5 0 0 1 71.574 85.956 4 4 0 0 1 69.916 85.609 4.4 4.4 0 0 1 68.578 84.694 4.5 4.5 0 0 1 67.662 83.357 3.8 3.8 0 0 1 67.315 81.798C67.315 81.204 67.431 80.66 67.662 80.164S68.199 79.231 68.578 78.853A4.1 4.1 0 0 1 69.916 77.96 4.1 4.1 0 0 1 71.523 77.64C72.085 77.64 72.613 77.747 73.109 77.96 73.603 78.176 74.041 78.474 74.42 78.853 74.799 79.231 75.106 79.668 75.336 80.164S75.684 81.204 75.684 81.798C75.684 82.293 75.566 82.789 75.336 83.282M84 74.173H59V68.878H84z" fill="#ffffff" data-fill-palette-color="accent"></path></svg></g></svg></g></svg></g><defs></defs></svg><rect width="395.52" height="70.86621390821526" fill="none" stroke="none" visibility="hidden"></rect></g></svg></g></svg>